<?xml version="1.0" standalone="no"?><svg xmlns="http://www.w3.org/2000/svg" viewBox="0 0 1440 320"><path fill="#D8CFBC" fill-opacity="1" d="M0,0L17.1,26.7C34.3,53,69,107,103,117.3C137.1,128,171,96,206,101.3C240,107,274,149,309,186.7C342.9,224,377,256,411,256C445.7,256,480,224,514,192C548.6,160,583,128,617,117.3C651.4,107,686,117,720,149.3C754.3,181,789,235,823,250.7C857.1,267,891,245,926,224C960,203,994,181,1029,197.3C1062.9,213,1097,267,1131,240C1165.7,213,1200,107,1234,53.3C1268.6,0,1303,0,1337,5.3C1371.4,11,1406,21,1423,26.7L1440,32L1440,320L1422.9,320C1405.7,320,1371,320,1337,320C1302.9,320,1269,320,1234,320C1200,320,1166,320,1131,320C1097.1,320,1063,320,1029,320C994.3,320,960,320,926,320C891.4,320,857,320,823,320C788.6,320,754,320,720,320C685.7,320,651,320,617,320C582.9,320,549,320,514,320C480,320,446,320,411,320C377.1,320,343,320,309,320C274.3,320,240,320,206,320C171.4,320,137,320,103,320C68.6,320,34,320,17,320L0,320Z"></path></svg>